<svg id="Layer_1" data-name="Layer 1" xmlns="http://www.w3.org/2000/svg" viewBox="0 0 48.84 48.71"><defs><style>.cls-1{fill:#1d1d1b;}.cls-2{fill:#fff;}</style></defs><path class="cls-1" d="M12,.26h8V17.44h.14a10.66,10.66,0,0,1,2-2.22,12.75,12.75,0,0,1,2.64-1.65,14.12,14.12,0,0,1,3-1.05,14.72,14.72,0,0,1,3.13-.35,18.37,18.37,0,0,1,7.47,1.4,14.62,14.62,0,0,1,5.3,3.83,16.36,16.36,0,0,1,3.16,5.7A23.4,23.4,0,0,1,47,36.63a16.66,16.66,0,0,1-2.87,5.63,14.22,14.22,0,0,1-4.88,3.9,15.41,15.41,0,0,1-6.95,1.47,30.55,30.55,0,0,1-3.68-.23A14.89,14.89,0,0,1,25,46.52,12.37,12.37,0,0,1,22,44.83a8.53,8.53,0,0,1-2.28-2.73h-.14v4.61H12ZM39.92,29.93a15.71,15.71,0,0,0-.63-4.43,11.4,11.4,0,0,0-1.9-3.8A9.47,9.47,0,0,0,34.24,19a9.2,9.2,0,0,0-4.36-1q-5,0-7.61,3.26a13.56,13.56,0,0,0-2.56,8.65,16.27,16.27,0,0,0,.66,4.72,10.57,10.57,0,0,0,2,3.74,9.93,9.93,0,0,0,3.2,2.47,9.66,9.66,0,0,0,4.31.91,9.58,9.58,0,0,0,4.64-1A9.48,9.48,0,0,0,37.64,38a10.52,10.52,0,0,0,1.75-3.77A17.47,17.47,0,0,0,39.92,29.93Z" transform="translate(0.34)"/><rect class="cls-1" width="48.84" height="48.71"/><path class="cls-2" d="M12.07,1h8V18h.14a10.51,10.51,0,0,1,2-2.19,12.67,12.67,0,0,1,2.63-1.65,14.94,14.94,0,0,1,3-1A14.05,14.05,0,0,1,31,12.81a18.71,18.71,0,0,1,7.47,1.39A14.69,14.69,0,0,1,43.79,18,16.22,16.22,0,0,1,47,23.66a22.22,22.22,0,0,1,1,6.91,22.65,22.65,0,0,1-1,6.52,16.26,16.26,0,0,1-2.88,5.58,14,14,0,0,1-4.87,3.88A15.54,15.54,0,0,1,32.35,48a30.72,30.72,0,0,1-3.69-.23,14.79,14.79,0,0,1-3.54-.87,12.34,12.34,0,0,1-3.05-1.68,8,8,0,0,1-2.28-2.71h-.14V47.1H12.07ZM40,30.44a15.38,15.38,0,0,0-.63-4.39,11.59,11.59,0,0,0-1.9-3.78,9.44,9.44,0,0,0-3.16-2.64,9.13,9.13,0,0,0-4.35-1q-5.05,0-7.61,3.23a13.44,13.44,0,0,0-2.56,8.59,16,16,0,0,0,.66,4.68,10.28,10.28,0,0,0,2,3.71,9.9,9.9,0,0,0,3.2,2.46,9.76,9.76,0,0,0,4.31.9,9.15,9.15,0,0,0,7.76-3.71,10.43,10.43,0,0,0,1.75-3.75A17.63,17.63,0,0,0,40,30.44Z" transform="translate(0.34)"/></svg>